<svg xmlns="http://www.w3.org/2000/svg" version="1.1" xmlns:xlink="http://www.w3.org/1999/xlink" width="512" height="512" x="0" y="0" viewBox="0 0 512 512" style="enable-background:new 0 0 512 512" xml:space="preserve" class=""><g><linearGradient id="c" x1="117.153" x2="439.783" y1="127.944" y2="450.573" gradientUnits="userSpaceOnUse"><stop offset="0" stop-color="#ffb92d"></stop><stop offset="1" stop-color="#f59500"></stop></linearGradient><linearGradient id="a"><stop offset="0" stop-color="#be3f45" stop-opacity="0"></stop><stop offset="1" stop-color="#be3f45"></stop></linearGradient><linearGradient xlink:href="#a" id="d" x1="199.435" x2="29.049" y1="319.344" y2="148.958" gradientUnits="userSpaceOnUse"></linearGradient><linearGradient id="b"><stop offset="0" stop-color="#8c6239"></stop><stop offset="1" stop-color="#42210b"></stop></linearGradient><linearGradient xlink:href="#b" id="e" x1="75.263" x2="136.024" y1="195.172" y2="255.933" gradientUnits="userSpaceOnUse"></linearGradient><linearGradient xlink:href="#a" id="f" x1="282.475" x2="139.024" y1="148.745" y2="5.295" gradientUnits="userSpaceOnUse"></linearGradient><linearGradient xlink:href="#b" id="g" x1="186.895" x2="227.674" y1="53.166" y2="93.945" gradientUnits="userSpaceOnUse"></linearGradient><linearGradient xlink:href="#a" id="h" x1="285.52" x2="142.069" y1="339.286" y2="195.836" gradientUnits="userSpaceOnUse"></linearGradient><linearGradient xlink:href="#b" id="i" x1="198.222" x2="239.001" y1="251.989" y2="292.768" gradientUnits="userSpaceOnUse"></linearGradient><linearGradient xlink:href="#a" id="j" x1="234.553" x2="118.016" y1="476.419" y2="359.883" gradientUnits="userSpaceOnUse"></linearGradient><linearGradient xlink:href="#b" id="k" x1="137.493" x2="193.792" y1="379.36" y2="435.658" gradientUnits="userSpaceOnUse"></linearGradient><linearGradient xlink:href="#a" id="l" x1="422.98" x2="298.464" y1="217.264" y2="92.748" gradientUnits="userSpaceOnUse"></linearGradient><linearGradient xlink:href="#b" id="m" x1="332.063" x2="388.362" y1="126.348" y2="182.646" gradientUnits="userSpaceOnUse"></linearGradient><linearGradient xlink:href="#a" id="n" x1="380.96" x2="311.412" y1="463.577" y2="394.029" gradientUnits="userSpaceOnUse"></linearGradient><linearGradient xlink:href="#b" id="o" x1="316.645" x2="357.424" y1="399.262" y2="440.041" gradientUnits="userSpaceOnUse"></linearGradient><linearGradient xlink:href="#a" id="p" x1="464.71" x2="367.247" y1="357.177" y2="259.714" gradientUnits="userSpaceOnUse"></linearGradient><linearGradient xlink:href="#b" id="q" x1="367.468" x2="434.249" y1="259.935" y2="326.715" gradientUnits="userSpaceOnUse"></linearGradient><path fill="url(#c)" d="M511.996 256c0 141.383-114.613 255.996-255.996 255.996C114.2 511.996 0 397.801 0 256 0 114.617 114.617 0 256 0c5.383 0 10.727.164 16.027.492 14.133.875 25.243 12.215 26.164 26.344.012.195.024.387.04.582 1.98 26.039 23.71 46.668 49.816 47.39 7.922.22 15.453-1.351 22.219-4.34 6.511-2.878 14.156-1.245 18.941 4.02A40.353 40.353 0 0 0 403.305 84.5c6.414 2.723 10.554 8.895 10.523 15.863v.18c0 22.27 18.047 40.316 40.3 40.316 3.86 0 7.59-.543 11.126-1.554 9.601-2.75 19.793 1.812 23.926 10.902 14.652 32.246 22.816 68.07 22.816 105.793zm0 0" opacity="1" data-original="url(#c)" class=""></path><path fill="url(#d)" d="M136.234 188.063c-8.824-9.805-21.609-15.97-35.84-15.97-26.624 0-48.21 21.583-48.21 48.212 0 14.226 6.168 27.011 15.968 35.836l179.762 179.761c8.824 9.801 21.61 15.97 35.836 15.97 26.629 0 48.21-21.587 48.21-48.212 0-14.23-6.163-27.015-15.968-35.84zm0 0" opacity="1" data-original="url(#d)" class=""></path><path fill="url(#e)" d="M148.61 220.305c0 26.625-21.587 48.21-48.215 48.21-26.625 0-48.211-21.585-48.211-48.21 0-26.63 21.586-48.211 48.21-48.211 26.63 0 48.215 21.582 48.215 48.21zm0 0" opacity="1" data-original="url(#e)"></path><path fill="url(#f)" d="M228.105 48.727c-5.933-6.77-14.636-11.051-24.343-11.051-17.871 0-32.356 14.488-32.356 32.36 0 9.706 4.278 18.41 11.051 24.339L334.262 246.18c5.93 6.77 14.633 11.05 24.34 11.05 17.87 0 32.359-14.484 32.359-32.355 0-9.707-4.281-18.41-11.055-24.344zm0 0" opacity="1" data-original="url(#f)"></path><path fill="url(#g)" d="M236.121 70.035c0 17.867-14.488 32.356-32.36 32.356-17.87 0-32.355-14.489-32.355-32.356 0-17.87 14.485-32.36 32.356-32.36 17.87 0 32.36 14.49 32.36 32.36zm0 0" opacity="1" data-original="url(#g)"></path><path fill="url(#h)" d="M239.43 247.55c-5.93-6.769-14.633-11.05-24.34-11.05-17.871 0-32.36 14.484-32.36 32.355 0 9.707 4.282 18.41 11.051 24.344l151.805 151.805c5.934 6.77 14.637 11.05 24.344 11.05 17.87 0 32.355-14.488 32.355-32.359 0-9.707-4.281-18.41-11.05-24.34zm0 0" opacity="1" data-original="url(#h)"></path><path fill="url(#i)" d="M247.45 268.855c0 17.872-14.49 32.36-32.36 32.36s-32.356-14.488-32.356-32.36c0-17.87 14.485-32.355 32.356-32.355s32.36 14.484 32.36 32.355zm0 0" opacity="1" data-original="url(#i)"></path><path fill="url(#j)" d="M193.387 372.125c-8.153-8.703-19.742-14.148-32.606-14.148-24.672 0-44.672 20-44.672 44.671 0 12.864 5.446 24.454 14.153 32.606l70.82 70.82A256.941 256.941 0 0 0 256 512c19.129 0 37.762-2.117 55.695-6.094-.8-11.617-6.035-22.011-14.03-29.5zm0 0" opacity="1" data-original="url(#j)"></path><path fill="url(#k)" d="M205.453 402.648c0 24.668-20 44.668-44.672 44.668s-44.672-20-44.672-44.668c0-24.671 20-44.671 44.672-44.671s44.672 20 44.672 44.671zm0 0" opacity="1" data-original="url(#k)"></path><path fill="url(#l)" d="M387.957 119.117c-8.152-8.707-19.742-14.152-32.605-14.152-24.672 0-44.672 20-44.672 44.672 0 12.863 5.445 24.453 14.148 32.605L429.11 286.52c8.149 8.703 19.739 14.152 32.606 14.152 24.672 0 44.672-20 44.672-44.672 0-12.867-5.45-24.457-14.153-32.605zm0 0" opacity="1" data-original="url(#l)"></path><path fill="url(#m)" d="M400.023 149.633c0 24.672-20 44.672-44.671 44.672-24.672 0-44.672-20-44.672-44.672 0-24.668 20-44.668 44.672-44.668 24.671 0 44.671 20 44.671 44.668zm0 0" opacity="1" data-original="url(#m)"></path><path fill="url(#n)" d="M357.855 394.824c-5.933-6.77-14.632-11.05-24.343-11.05-17.867 0-32.356 14.484-32.356 32.355 0 9.707 4.281 18.41 11.051 24.344l48.578 48.578c.125.14.262.273.39.414 20.376-9.195 39.325-20.988 56.446-34.942zm0 0" opacity="1" data-original="url(#n)"></path><path fill="url(#o)" d="M365.871 416.129c0 17.871-14.488 32.36-32.36 32.36-17.87 0-32.355-14.489-32.355-32.36s14.485-32.356 32.356-32.356c17.87 0 32.36 14.485 32.36 32.356zm0 0" opacity="1" data-original="url(#o)"></path><path fill="url(#p)" d="m503.61 321.2-69.848-69.848c-9.668-10.325-23.41-16.786-38.672-16.786-29.266 0-52.988 23.727-52.988 52.993 0 15.257 6.46 29.004 16.785 38.671l93.715 93.72c23.683-28.372 41.343-61.942 51.007-98.75zm0 0" opacity="1" data-original="url(#p)"></path><path fill="url(#q)" d="M448.078 287.559c0 29.265-23.723 52.988-52.988 52.988s-52.988-23.723-52.988-52.988 23.722-52.993 52.988-52.993 52.988 23.727 52.988 52.993zm0 0" opacity="1" data-original="url(#q)"></path></g></svg>